<svg xmlns="http://www.w3.org/2000/svg" viewBox="0 0 480 160">
  <defs>
    <pattern id="hatch" width="18" height="18" patternUnits="userSpaceOnUse">
      <path d="M-4 18 18-4M6 22 22 6" stroke="#111" stroke-width="1.7" opacity=".24"/>
    </pattern>
  </defs>
  <rect width="480" height="160" fill="#f7f7f1"/>
  <rect width="480" height="160" fill="url(#hatch)"/>
  <path d="M18 18h132v124H18zM166 18h140v124H166zM322 18h140v124H322z" fill="rgba(255,255,255,.74)" stroke="#080808" stroke-width="7"/>
  <g transform="translate(95 82)" stroke="#080808" stroke-linecap="round" stroke-linejoin="round" fill="none">
    <path d="M-44-12c20-20 48-20 69 0M-48-10c23 14 49 15 76 0" stroke-width="7"/>
    <path d="M-10-6c5 14 25 14 31 0" fill="#111" stroke-width="3"/>
    <path d="M-62 35c38 17 77 17 116-2" stroke-width="5"/>
    <path d="M-64-34c31-37 86-41 126-10" stroke-width="10"/>
  </g>
  <g transform="translate(244 78)" stroke="#080808" stroke-linecap="round" stroke-linejoin="round" fill="none">
    <path d="M-50-18c31-28 76-27 105 1M-49 14c33 20 73 20 109-2" stroke-width="9"/>
    <path d="M-32 49c25 8 52 7 82-4" stroke-width="5"/>
  </g>
  <g transform="translate(385 78)" stroke="#080808" stroke-linecap="round" stroke-linejoin="round" fill="none">
    <path d="M-42-14c20-18 50-18 71 1M-43 17c23 14 51 13 78-3" stroke-width="7"/>
    <path d="M-62-36c25-29 68-31 101-5M-52-45c-3-23 12-43 38-52" stroke-width="9"/>
    <path d="M20-39c28-19 58-10 78 19" stroke-width="8"/>
  </g>
</svg>
