<svg xmlns="http://www.w3.org/2000/svg" viewBox="0 0 480 160">
  <defs>
    <pattern id="tone" width="12" height="12" patternUnits="userSpaceOnUse">
      <circle cx="2" cy="2" r="1.2" fill="#111" opacity=".32"/>
      <circle cx="8" cy="8" r="1" fill="#111" opacity=".22"/>
    </pattern>
  </defs>
  <rect width="480" height="160" fill="#f6f3ec"/>
  <rect width="480" height="160" fill="url(#tone)" opacity=".85"/>
  <path d="M0 26h480M0 132h480M118 0v160M332 0v160" stroke="#080808" stroke-width="7" opacity=".9"/>
  <path d="M-20 150 110-10M32 168 190-18M238 170 392-16M330 172 510-12" stroke="#111" stroke-width="4" opacity=".18"/>
  <g transform="translate(224 79)" stroke="#070707" stroke-linecap="round" stroke-linejoin="round">
    <path d="M72-26c42 37 39 101-1 132-42 32-110 18-136-29-25-45-4-98 40-117 33-15 70-10 97 14z" fill="#fff" stroke-width="7"/>
    <path d="M-62 6c27-25 62-24 88 2M36 7c25-25 59-24 82 2" fill="none" stroke-width="8"/>
    <path d="M-31 13c7 17 29 18 40 1M65 13c7 16 29 16 40 0" fill="#111" stroke-width="3"/>
    <circle cx="-15" cy="6" r="5" fill="#fff"/>
    <circle cx="82" cy="6" r="5" fill="#fff"/>
    <path d="M11 52c24 12 55 10 76-5" fill="none" stroke-width="5"/>
    <path d="M-92-13c38-66 138-78 203-20M-72-31c-18-35 1-69 43-83M34-40c42-31 89-22 121 18" fill="none" stroke-width="13"/>
  </g>
</svg>
