<svg xmlns="http://www.w3.org/2000/svg" viewBox="0 0 480 160">
  <defs>
    <radialGradient id="burst" cx=".5" cy=".5" r=".78">
      <stop offset="0" stop-color="#fff"/>
      <stop offset=".52" stop-color="#cfcfcf"/>
      <stop offset="1" stop-color="#111"/>
    </radialGradient>
    <pattern id="dots" width="9" height="9" patternUnits="userSpaceOnUse">
      <circle cx="4" cy="4" r="1" fill="#111" opacity=".28"/>
    </pattern>
  </defs>
  <rect width="480" height="160" fill="url(#burst)"/>
  <rect width="480" height="160" fill="url(#dots)" opacity=".65"/>
  <g stroke="#080808" stroke-linecap="round" stroke-linejoin="round">
    <path d="M26 22h188v116H26zM230 22h224v116H230z" fill="rgba(255,255,255,.7)" stroke-width="7"/>
    <g transform="translate(136 82)">
      <path d="M57-24c32 28 30 76 0 101-32 26-83 17-104-18-22-36-8-77 28-96 25-13 55-9 76 13z" fill="#fff" stroke-width="6"/>
      <path d="M-48 2c22-19 48-19 69 1M29 2c22-19 50-19 69 1" fill="none" stroke-width="7"/>
      <path d="M-2 42c20 11 44 9 63-4" fill="none" stroke-width="5"/>
      <path d="M-72-20c32-53 106-63 157-17M-53-31c-12-27 5-53 37-65M25-39c34-23 72-16 96 16" fill="none" stroke-width="10"/>
    </g>
    <g transform="translate(338 82)" fill="none">
      <path d="M-70-34c42-30 100-29 142 4M-74 16c47 23 96 23 146 0" stroke-width="10"/>
      <path d="M-52 52c34 10 70 8 108-6" stroke-width="6"/>
      <path d="M-91-53c36-34 82-47 136-37M38-51c45-17 82-6 113 34" stroke-width="8"/>
    </g>
  </g>
</svg>
