<svg xmlns="http://www.w3.org/2000/svg" viewBox="0 0 480 160">
  <defs>
    <pattern id="speed" width="80" height="80" patternUnits="userSpaceOnUse">
      <path d="M-8 64 80 0M10 88 88 22M-18 22 42-10" stroke="#111" stroke-width="3" opacity=".18"/>
    </pattern>
  </defs>
  <rect width="480" height="160" fill="#f5f2ea"/>
  <rect width="480" height="160" fill="url(#speed)"/>
  <path d="M0 0h480v160H0z" fill="none" stroke="#080808" stroke-width="10"/>
  <path d="M94 0v160M250 0v160M392 0v160" stroke="#080808" stroke-width="6"/>
  <g transform="translate(314 82)" stroke="#080808" stroke-linecap="round" stroke-linejoin="round">
    <path d="M70-27c32 31 31 82-1 109-33 28-88 24-116-8-29-34-20-84 17-109 30-20 72-17 100 8z" fill="#fff" stroke-width="6"/>
    <path d="M-48 1c24-19 52-19 75 1M37 0c23-18 51-18 73 1" fill="none" stroke-width="7"/>
    <path d="M-11 42c23 13 52 12 76-3" fill="none" stroke-width="5"/>
    <path d="M-82-27c36-49 110-61 167-21M-57-43c-8-30 13-57 49-67M35-48c38-24 78-14 105 23" fill="none" stroke-width="10"/>
  </g>
  <g stroke="#080808" fill="none" stroke-linecap="round">
    <path d="M28 48c27-24 62-25 91-2M30 98c35 16 70 14 105-5" stroke-width="8"/>
    <path d="M144 36c29-17 62-14 91 7M148 106c27 11 55 8 84-8" stroke-width="7"/>
  </g>
</svg>
