<svg xmlns="http://www.w3.org/2000/svg" viewBox="0 0 260 86">
  <defs>
    <radialGradient id="burst" cx=".5" cy=".5" r=".72">
      <stop offset="0" stop-color="#fff"/>
      <stop offset=".58" stop-color="#d8d8d8"/>
      <stop offset="1" stop-color="#111"/>
    </radialGradient>
    <pattern id="tone" width="8" height="8" patternUnits="userSpaceOnUse">
      <circle cx="3" cy="3" r="1" fill="#111" opacity=".26"/>
    </pattern>
  </defs>
  <rect width="260" height="86" rx="18" fill="url(#burst)"/>
  <rect width="260" height="86" rx="18" fill="url(#tone)" opacity=".75"/>
  <g stroke="#080808" stroke-linecap="round" stroke-linejoin="round">
    <path d="M20 14h68v58H20zM94 14h70v58H94zM170 14h70v58h-70z" fill="rgba(255,255,255,.75)" stroke-width="4"/>
    <path d="M55 25c18 0 30 13 29 27-1 16-16 25-33 24-16-1-30-12-29-27 1-15 15-24 33-24z" fill="#fff" stroke-width="3"/>
    <path d="M33 47c11-9 24-9 34 0M55 49c-2 8-13 9-18 1" fill="none" stroke-width="3"/>
    <path d="M101 37c16-19 45-20 61-2M106 54c17 10 35 11 54 2" fill="none" stroke-width="5"/>
    <path d="M184 37c10-9 23-9 34 1M180 55c18 8 38 7 58-3" fill="none" stroke-width="4"/>
    <path d="M35 27c14-19 43-20 63-4M187 25c17-12 34-11 51 3" fill="none" stroke-width="5"/>
  </g>
</svg>
