<svg xmlns="http://www.w3.org/2000/svg" viewBox="0 0 260 86">
  <defs>
    <pattern id="dots" width="10" height="10" patternUnits="userSpaceOnUse">
      <circle cx="2" cy="2" r="1.15" fill="#111" opacity=".28"/>
      <circle cx="7" cy="7" r=".9" fill="#111" opacity=".22"/>
    </pattern>
    <filter id="rough"><feTurbulence baseFrequency=".08" numOctaves="2" seed="4"/><feDisplacementMap in="SourceGraphic" scale=".8"/></filter>
  </defs>
  <rect width="260" height="86" rx="18" fill="#f4f1ea"/>
  <rect width="260" height="86" rx="18" fill="url(#dots)" opacity=".95"/>
  <path d="M-18 78 72-8M18 92 124-12M90 98 205-18M174 96 282-8" stroke="#111" stroke-width="3" opacity=".20"/>
  <g filter="url(#rough)" stroke="#080808" stroke-linecap="round" stroke-linejoin="round">
    <path d="M22 14h90v58H22z" fill="#fff" stroke-width="4"/>
    <path d="M128 14h110v58H128z" fill="#efefef" stroke-width="4"/>
    <path d="M76 30c12 8 17 25 8 36-10 12-33 11-44 0-12-12-8-31 7-39 9-5 20-4 29 3z" fill="#fff" stroke-width="3"/>
    <path d="M43 45c7-7 16-7 23 0M76 45c8-7 17-7 25 0" fill="none" stroke-width="3"/>
    <path d="M54 58c10 5 22 5 32 0" fill="none" stroke-width="2"/>
    <path d="M35 31c14-23 46-26 68-8M45 26c-5-12 0-22 13-28M80 24c14-12 29-10 42 2" fill="none" stroke-width="5"/>
    <path d="M150 28c16-14 42-15 60-2M146 50c24 12 51 11 78-2" fill="none" stroke-width="5"/>
    <path d="M153 63c19-4 42-3 66 2" fill="none" stroke-width="3"/>
  </g>
</svg>
