<svg xmlns="http://www.w3.org/2000/svg" viewBox="0 0 260 86">
  <defs>
    <pattern id="hatch" width="12" height="12" patternUnits="userSpaceOnUse">
      <path d="M-2 12 12-2M5 14 14 5" stroke="#111" stroke-width="1.2" opacity=".28"/>
    </pattern>
  </defs>
  <rect width="260" height="86" rx="18" fill="#f8f6ef"/>
  <rect width="260" height="86" rx="18" fill="url(#hatch)" opacity=".9"/>
  <path d="M0 18h260M0 67h260M82 0v86M174 0v86" stroke="#111" stroke-width="5" opacity=".82"/>
  <g stroke="#080808" stroke-linecap="round" stroke-linejoin="round" fill="none">
    <path d="M38 34c12-12 28-12 40 0M36 35c14 7 29 8 45 0" stroke-width="4"/>
    <path d="M50 37c3 7 13 8 18 0" fill="#111" stroke-width="2"/>
    <path d="M103 24c18-12 39-10 55 5M103 53c18 9 37 9 58-2" stroke-width="5"/>
    <path d="M195 25c23 13 31 35 20 49M203 21c-12 12-15 28-7 45M219 28c-14 3-25 14-27 29" stroke-width="4"/>
    <path d="M21 57c15 9 36 12 61 5M184 62c18 7 37 6 56-2" stroke-width="3"/>
  </g>
  <circle cx="218" cy="28" r="10" fill="#111" opacity=".18"/>
</svg>
